<svg width="28" height="22" viewBox="0 0 28 22" fill="none" xmlns="http://www.w3.org/2000/svg">
<path d="M24.6672 0.333008H3.33284C1.86724 0.333008 0.680036 1.53301 0.680036 3.00021L0.667236 19.0002C0.667236 20.4674 1.86724 21.6674 3.33284 21.6674H24.6672C26.1328 21.6674 27.3328 20.4674 27.3328 19.0002V3.00021C27.3328 1.53301 26.1328 0.333008 24.6672 0.333008ZM24.1328 6.00021L14.7072 11.8946C14.4946 12.0255 14.2498 12.0949 14 12.0949C13.7503 12.0949 13.5055 12.0255 13.2928 11.8946L3.86724 6.00021C3.7354 5.92422 3.62023 5.82245 3.52859 5.70097C3.43695 5.57949 3.37073 5.44079 3.33387 5.29316C3.29701 5.14553 3.29028 4.99198 3.31407 4.84168C3.33785 4.69139 3.39168 4.54743 3.47233 4.41839C3.55297 4.28935 3.65879 4.17789 3.78346 4.09064C3.90814 4.0034 4.04911 3.94217 4.19797 3.91061C4.34682 3.87905 4.50051 3.8778 4.64986 3.90694C4.79921 3.93607 4.94116 3.995 5.06724 4.08021L14 9.66741L22.9328 4.08021C23.0589 3.995 23.2009 3.93607 23.3502 3.90694C23.4996 3.8778 23.6532 3.87905 23.8021 3.91061C23.951 3.94217 24.0919 4.0034 24.2166 4.09064C24.3413 4.17789 24.4471 4.28935 24.5277 4.41839C24.6084 4.54743 24.6622 4.69139 24.686 4.84168C24.7098 4.99198 24.7031 5.14553 24.6662 5.29316C24.6293 5.44079 24.5631 5.57949 24.4715 5.70097C24.3798 5.82245 24.2647 5.92422 24.1328 6.00021Z" fill="url(#paint0_linear_147_335)"/>
<defs>
<linearGradient id="paint0_linear_147_335" x1="0.667237" y1="11" x2="27.3328" y2="11" gradientUnits="userSpaceOnUse">
<stop stop-color="#388E3C"/>
<stop offset="0.0001" stop-color="#1A701E"/>
<stop offset="1" stop-color="#81BB3D"/>
</linearGradient>
</defs>
</svg>
