<svg width="26" height="26" viewBox="0 0 26 26" fill="none" xmlns="http://www.w3.org/2000/svg">
<path d="M10.1733 15.8266L9.97328 15.6666L9.73328 15.5333L9.49328 15.4666C9.27907 15.4237 9.05761 15.4341 8.84836 15.4969C8.63912 15.5597 8.4485 15.6729 8.29328 15.8266C8.16138 15.9474 8.06073 16.0984 7.99994 16.2666C7.9294 16.4262 7.89297 16.5988 7.89297 16.7733C7.89297 16.9478 7.9294 17.1203 7.99994 17.2799C8.14321 17.6003 8.39955 17.8567 8.71994 17.9999C8.88024 18.0683 9.05237 18.1045 9.22661 18.1066C9.40502 18.1033 9.5813 18.0671 9.74661 17.9999C9.90912 17.9356 10.055 17.8353 10.1733 17.7066C10.298 17.5849 10.3977 17.44 10.4666 17.2799C10.5304 17.1187 10.5621 16.9466 10.5599 16.7733C10.5645 16.5984 10.5279 16.4249 10.4533 16.2666C10.3922 16.1018 10.2967 15.9518 10.1733 15.8266V15.8266ZM1.67994 8.67994C1.85635 8.67921 2.03086 8.64348 2.19336 8.57482C2.35586 8.50616 2.50312 8.40593 2.62661 8.27994L8.27994 2.62661C8.52828 2.37679 8.66767 2.03886 8.66767 1.68661C8.66767 1.33436 8.52828 0.996427 8.27994 0.74661C8.03013 0.498276 7.69219 0.358887 7.33994 0.358887C6.9877 0.358887 6.64976 0.498276 6.39994 0.74661L0.74661 6.39994C0.498276 6.64976 0.358887 6.9877 0.358887 7.33994C0.358887 7.69219 0.498276 8.03013 0.74661 8.27994C0.992784 8.53116 1.32825 8.67494 1.67994 8.67994V8.67994ZM25.2533 17.7199C25.0035 17.4716 24.6655 17.3322 24.3133 17.3322C23.961 17.3322 23.6231 17.4716 23.3733 17.7199L17.7199 23.3733C17.5327 23.559 17.4048 23.796 17.3522 24.0544C17.2997 24.3129 17.325 24.581 17.4249 24.8251C17.5248 25.0691 17.6948 25.2781 17.9135 25.4255C18.1321 25.5729 18.3896 25.6522 18.6533 25.6533C18.8297 25.6525 19.0042 25.6168 19.1667 25.5482C19.3292 25.4795 19.4765 25.3793 19.5999 25.2533L25.2533 19.6666C25.3865 19.5419 25.4927 19.3912 25.5653 19.2237C25.6379 19.0563 25.6753 18.8758 25.6753 18.6933C25.6753 18.5108 25.6379 18.3302 25.5653 18.1628C25.4927 17.9954 25.3865 17.8447 25.2533 17.7199V17.7199ZM25.4799 10.1733C25.4826 9.11468 25.0654 8.09822 24.3199 7.34661L18.6533 1.67994C17.8902 0.955933 16.8785 0.552315 15.8266 0.552315C14.7747 0.552315 13.763 0.955933 12.9999 1.67994L1.67994 12.9999C0.930875 13.7499 0.51013 14.7666 0.51013 15.8266C0.51013 16.8866 0.930875 17.9033 1.67994 18.6533L7.34661 24.3199C8.09661 25.069 9.11327 25.4898 10.1733 25.4898C11.2333 25.4898 12.2499 25.069 12.9999 24.3199L24.3199 12.9999C25.0654 12.2483 25.4826 11.2319 25.4799 10.1733V10.1733ZM22.4266 11.1199L11.1199 22.4266C10.996 22.5516 10.8485 22.6508 10.686 22.7185C10.5236 22.7862 10.3493 22.821 10.1733 22.821C9.99726 22.821 9.82299 22.7862 9.66051 22.7185C9.49803 22.6508 9.35056 22.5516 9.22661 22.4266L3.57328 16.7733C3.44831 16.6493 3.34911 16.5019 3.28142 16.3394C3.21373 16.1769 3.17888 16.0026 3.17888 15.8266C3.17888 15.6506 3.21373 15.4763 3.28142 15.3138C3.34911 15.1514 3.44831 15.0039 3.57328 14.8799L14.8799 3.57328C15.0039 3.44831 15.1514 3.34911 15.3138 3.28142C15.4763 3.21373 15.6506 3.17888 15.8266 3.17888C16.0026 3.17888 16.1769 3.21373 16.3394 3.28142C16.5019 3.34911 16.6493 3.44831 16.7733 3.57328L22.4266 9.22661C22.5516 9.35056 22.6508 9.49803 22.7185 9.66051C22.7862 9.82299 22.821 9.99726 22.821 10.1733C22.821 10.3493 22.7862 10.5236 22.7185 10.686C22.6508 10.8485 22.5516 10.996 22.4266 11.1199Z" fill="#8BC34A"/>
</svg>
