<svg width="28" height="21" viewBox="0 0 28 21" fill="none" xmlns="http://www.w3.org/2000/svg">
<path d="M7.33317 13.9998H11.3332C11.6868 13.9998 12.0259 13.8594 12.276 13.6093C12.526 13.3593 12.6665 13.0201 12.6665 12.6665C12.6665 12.3129 12.526 11.9737 12.276 11.7237C12.0259 11.4736 11.6868 11.3332 11.3332 11.3332H7.33317C6.97955 11.3332 6.64041 11.4736 6.39036 11.7237C6.14031 11.9737 5.99984 12.3129 5.99984 12.6665C5.99984 13.0201 6.14031 13.3593 6.39036 13.6093C6.64041 13.8594 6.97955 13.9998 7.33317 13.9998ZM23.3332 0.666504H4.6665C3.60564 0.666504 2.58822 1.08793 1.83808 1.83808C1.08793 2.58822 0.666504 3.60564 0.666504 4.6665V16.6665C0.666504 17.7274 1.08793 18.7448 1.83808 19.4949C2.58822 20.2451 3.60564 20.6665 4.6665 20.6665H23.3332C24.394 20.6665 25.4115 20.2451 26.1616 19.4949C26.9117 18.7448 27.3332 17.7274 27.3332 16.6665V4.6665C27.3332 3.60564 26.9117 2.58822 26.1616 1.83808C25.4115 1.08793 24.394 0.666504 23.3332 0.666504ZM24.6665 16.6665C24.6665 17.0201 24.526 17.3593 24.276 17.6093C24.0259 17.8594 23.6868 17.9998 23.3332 17.9998H4.6665C4.31288 17.9998 3.97374 17.8594 3.7237 17.6093C3.47365 17.3593 3.33317 17.0201 3.33317 16.6665V8.6665H24.6665V16.6665ZM24.6665 5.99984H3.33317V4.6665C3.33317 4.31288 3.47365 3.97374 3.7237 3.7237C3.97374 3.47365 4.31288 3.33317 4.6665 3.33317H23.3332C23.6868 3.33317 24.0259 3.47365 24.276 3.7237C24.526 3.97374 24.6665 4.31288 24.6665 4.6665V5.99984Z" fill="#8BC34A"/>
</svg>
