<svg width="28" height="28" viewBox="0 0 28 28" fill="none" xmlns="http://www.w3.org/2000/svg">
<path d="M26.9468 18.7733L20.9201 12.76C21.0462 12.1458 21.1088 11.5203 21.1068 10.8933C21.1063 9.17421 20.6725 7.48294 19.8454 5.97585C19.0183 4.46877 17.8246 3.19451 16.3746 2.27086C14.9247 1.34722 13.2653 0.803989 11.5499 0.691394C9.83446 0.578799 8.11832 0.90047 6.5601 1.62667C6.36268 1.71686 6.19026 1.85387 6.05782 2.02582C5.92538 2.19776 5.83691 2.39944 5.8001 2.61334C5.76344 2.82452 5.77823 3.04143 5.84322 3.24568C5.9082 3.44993 6.02148 3.63551 6.17343 3.78667L11.9734 9.57334L9.57343 11.9733L3.78677 6.17334C3.63432 6.02374 3.44817 5.91296 3.24398 5.85031C3.0398 5.78766 2.82354 5.77498 2.61343 5.81334C2.40088 5.8488 2.20008 5.93525 2.02824 6.06529C1.85641 6.19533 1.71865 6.36508 1.62677 6.56001C0.898134 8.12335 0.576742 9.84558 0.692489 11.5665C0.808237 13.2874 1.35736 14.9511 2.28878 16.4028C3.2202 17.8545 4.50366 19.047 6.01976 19.8694C7.53585 20.6919 9.23533 21.1175 10.9601 21.1067C11.5871 21.1087 12.2126 21.0461 12.8268 20.92L18.8401 26.9467C18.9641 27.0716 19.1115 27.1708 19.274 27.2385C19.4365 27.3062 19.6108 27.3411 19.7868 27.3411C19.9628 27.3411 20.1371 27.3062 20.2995 27.2385C20.462 27.1708 20.6095 27.0716 20.7334 26.9467C20.8584 26.8227 20.9576 26.6753 21.0253 26.5128C21.093 26.3503 21.1278 26.176 21.1278 26C21.1278 25.824 21.093 25.6497 21.0253 25.4872C20.9576 25.3248 20.8584 25.1773 20.7334 25.0533L14.2001 18.52C14.0368 18.3578 13.8344 18.2407 13.6124 18.1799C13.3904 18.1192 13.1565 18.1169 12.9334 18.1733C12.2897 18.3457 11.6265 18.4354 10.9601 18.44C9.96283 18.4488 8.97368 18.2602 8.04962 17.885C7.12556 17.5099 6.28486 16.9556 5.57595 16.2541C4.86704 15.5527 4.30393 14.7179 3.91906 13.7978C3.53418 12.8778 3.33515 11.8906 3.33343 10.8933C3.33171 10.4467 3.36739 10.0007 3.4401 9.56001L8.66677 14.8C8.79072 14.925 8.93819 15.0242 9.10067 15.0919C9.26314 15.1596 9.43742 15.1944 9.61343 15.1944C9.78945 15.1944 9.96372 15.1596 10.1262 15.0919C10.2887 15.0242 10.4362 14.925 10.5601 14.8L14.8001 10.52C15.0404 10.2714 15.1748 9.93912 15.1748 9.59334C15.1748 9.24756 15.0404 8.9153 14.8001 8.66667L9.61343 3.44001C10.0542 3.36802 10.5002 3.33235 10.9468 3.33334C12.9495 3.33687 14.869 4.13493 16.2839 5.55232C17.6988 6.96971 18.4934 8.89061 18.4934 10.8933C18.4888 11.5598 18.3992 12.2229 18.2268 12.8667C18.1703 13.0898 18.1726 13.3237 18.2333 13.5456C18.2941 13.7676 18.4113 13.9701 18.5734 14.1333L25.1068 20.6667C25.3578 20.9177 25.6984 21.0588 26.0534 21.0588C26.4085 21.0588 26.749 20.9177 27.0001 20.6667C27.2512 20.4156 27.3922 20.0751 27.3922 19.72C27.3922 19.3649 27.2512 19.0244 27.0001 18.7733H26.9468Z" fill="#8BC34A"/>
</svg>
