<svg width="30" height="30" viewBox="0 0 30 30" fill="none" xmlns="http://www.w3.org/2000/svg">
<path d="M28.3335 0.333523H19.0002C18.2368 0.330396 17.4966 0.595801 16.9092 1.0833C16.3218 1.57079 15.9245 2.24934 15.7868 3.00019L14.5602 9.73352C14.4754 10.2026 14.4947 10.6847 14.6168 11.1455C14.739 11.6063 14.9609 12.0346 15.2668 12.4002C15.5745 12.7659 15.9581 13.0603 16.3909 13.263C16.8238 13.4656 17.2956 13.5715 17.7735 13.5735H21.6668L21.3335 14.4535C21.0874 15.106 21.0019 15.8082 21.0843 16.5006C21.1666 17.1931 21.4144 17.8556 21.8066 18.4322C22.1989 19.0088 22.7241 19.4826 23.3379 19.8135C23.9518 20.1444 24.6362 20.3228 25.3335 20.3335C25.5922 20.3356 25.846 20.2623 26.0638 20.1226C26.2816 19.9829 26.4541 19.7829 26.5602 19.5469L29.5468 12.8002C29.6148 12.6532 29.6555 12.4951 29.6668 12.3335V1.66686C29.6668 1.31323 29.5264 0.974096 29.2763 0.724048C29.0263 0.473999 28.6871 0.333523 28.3335 0.333523ZM27.0002 11.9735L24.5602 17.4802C24.322 17.3506 24.1168 17.1682 23.9602 16.9469C23.8032 16.7247 23.704 16.4671 23.6715 16.1971C23.6389 15.9271 23.6739 15.6533 23.7735 15.4002L24.2802 14.0669C24.4135 13.7211 24.4589 13.3476 24.4123 12.9799C24.3658 12.6122 24.2287 12.2619 24.0135 11.9602C23.8015 11.6597 23.5196 11.4152 23.1921 11.248C22.8645 11.0807 22.5012 10.9957 22.1335 11.0002H17.7468C17.6583 11.0004 17.5707 10.9815 17.4901 10.9447C17.4096 10.9078 17.3379 10.854 17.2802 10.7869C17.1767 10.6447 17.1335 10.4674 17.1602 10.2935L18.3868 3.62686C18.3811 3.54422 18.3929 3.46131 18.4215 3.38357C18.4501 3.30583 18.4949 3.23503 18.5528 3.17583C18.6108 3.11663 18.6806 3.07037 18.7577 3.0401C18.8348 3.00983 18.9174 2.99623 19.0002 3.00019H27.0002V11.9735ZM12.2535 16.4002H8.40016L8.7335 15.5202C8.97603 14.8639 9.05654 14.1587 8.96818 13.4646C8.87983 12.7705 8.62523 12.108 8.226 11.5334C7.82678 10.9588 7.29474 10.4891 6.6751 10.1641C6.05545 9.83913 5.36652 9.66855 4.66683 9.66686C4.40808 9.66481 4.15433 9.7381 3.93652 9.87779C3.71871 10.0175 3.54624 10.2175 3.44016 10.4535L0.453496 17.2002C0.37709 17.3678 0.336231 17.5494 0.333496 17.7335V28.4002C0.333496 28.7538 0.473972 29.093 0.72402 29.343C0.974069 29.593 1.31321 29.7335 1.66683 29.7335H11.0002C11.7635 29.7367 12.5037 29.4712 13.0911 28.9838C13.6785 28.4963 14.0758 27.8177 14.2135 27.0669L15.4402 20.4002C15.5249 19.9311 15.5056 19.4491 15.3835 18.9882C15.2614 18.5274 15.0395 18.0991 14.7335 17.7335C14.4444 17.3418 14.072 17.019 13.6432 16.7885C13.2143 16.5579 12.7397 16.4253 12.2535 16.4002V16.4002ZM11.6135 26.5069C11.5906 26.6505 11.5152 26.7805 11.4018 26.8716C11.2885 26.9628 11.1454 27.0086 11.0002 27.0002H3.00016V18.0269L5.44016 12.5202C5.6783 12.6498 5.88356 12.8322 6.04016 13.0535C6.19707 13.2756 6.29629 13.5333 6.32887 13.8033C6.36146 14.0733 6.32639 14.3471 6.22683 14.6002L5.72016 15.9335C5.58687 16.2793 5.54146 16.6528 5.588 17.0205C5.63454 17.3881 5.77158 17.7385 5.98683 18.0402C6.19583 18.3456 6.47644 18.5953 6.80416 18.7673C7.13188 18.9393 7.49672 19.0284 7.86683 19.0269H12.2535C12.3421 19.0266 12.4297 19.0455 12.5102 19.0824C12.5908 19.1192 12.6624 19.173 12.7202 19.2402C12.8237 19.3824 12.8668 19.5597 12.8402 19.7335L11.6135 26.5069Z" fill="#8BC34A"/>
</svg>
