<svg width="24" height="24" viewBox="0 0 24 24" fill="none" xmlns="http://www.w3.org/2000/svg">
<path d="M21.64 16.3471L18.2528 15.9599C17.8548 15.9133 17.4513 15.9574 17.0728 16.089C16.6942 16.2207 16.3504 16.4364 16.0672 16.7199L13.6128 19.1727C9.82831 17.2477 6.75219 14.1716 4.8272 10.3871L7.2928 7.9199C7.8672 7.3471 8.1472 6.5471 8.0528 5.7327L7.6672 2.3727C7.59142 1.72215 7.27907 1.12218 6.78961 0.687008C6.30014 0.251832 5.66775 0.0118325 5.0128 0.0126976H2.7072C1.2 0.0126976 -0.052798 1.2671 0.040002 2.7727C0.747202 14.1599 9.8528 23.2527 21.2272 23.9599C22.7328 24.0527 23.9872 22.7999 23.9872 21.2927V18.9871C23.9905 18.335 23.7527 17.7047 23.3194 17.2174C22.8861 16.7301 22.288 16.4201 21.64 16.3471Z" fill="url(#paint0_linear_147_333)"/>
<defs>
<linearGradient id="paint0_linear_147_333" x1="0.0351564" y1="11.9884" x2="23.9872" y2="11.9884" gradientUnits="userSpaceOnUse">
<stop stop-color="#388E3C"/>
<stop offset="0.0001" stop-color="#1A701E"/>
<stop offset="1" stop-color="#81BB3D"/>
</linearGradient>
</defs>
</svg>
