<svg width="665" height="665" viewBox="0 0 665 665" fill="none" xmlns="http://www.w3.org/2000/svg">
<path d="M611.98 162.137C623.398 179.224 633.109 197.273 641.036 216.022C652.882 244.04 646.257 270.404 628.445 290.609C610.239 311.259 580.27 325.25 547.152 325.25H478.874C394.029 325.25 325.25 394.029 325.25 478.874V547.152C325.25 580.27 311.259 610.239 290.609 628.445C270.404 646.257 244.04 652.882 216.022 641.036C197.273 633.109 179.224 623.398 162.137 611.98C108.803 576.344 67.2344 525.692 42.6875 466.431C18.1405 407.169 11.7179 341.959 24.2319 279.048C36.7458 216.137 67.6341 158.348 112.991 112.991C158.348 67.6341 216.137 36.7458 279.048 24.2319C341.959 11.7179 407.169 18.1405 466.431 42.6875C525.692 67.2344 576.344 108.803 611.98 162.137Z" stroke="#8BC34A" stroke-width="34.1388"/>
<path d="M571.645 112.991C601.488 142.832 624.912 177.889 641.034 216.021C652.88 244.038 646.254 270.404 628.444 290.607C610.237 311.259 580.267 325.25 547.151 325.25H137.484C104.367 325.25 74.3971 311.259 56.191 290.607C38.3799 270.404 31.7548 244.038 43.601 216.021C59.723 177.889 83.1479 142.832 112.989 112.991C173.812 52.1692 256.303 18 342.318 18C428.332 18 510.823 52.1692 571.645 112.991Z" stroke="#8BC34A" stroke-width="34.1388"/>
<path d="M112.991 112.992C143.107 82.8764 178.859 58.9872 218.207 42.6887C245.718 31.2933 271.56 37.872 291.346 55.3569C311.569 73.2271 325.25 102.564 325.25 134.994V205.765C325.25 271.756 271.754 325.251 205.764 325.251H134.993C102.563 325.251 73.2256 311.57 55.3555 291.348C37.8706 271.561 31.2919 245.72 42.6873 218.209C58.9858 178.86 82.875 143.108 112.991 112.992Z" stroke="#8BC34A" stroke-width="34.1388"/>
</svg>
