<svg width="125" height="59" viewBox="0 0 125 59" fill="none" xmlns="http://www.w3.org/2000/svg">
<g clip-path="url(#clip0_151_183)">
<path d="M41.6641 31.8359H45.1921L55.2361 56.9999H51.4921L48.9721 50.7359H37.8481L35.4001 56.9999H31.6201L41.6641 31.8359ZM47.9641 47.6759L43.4281 35.9039L38.8921 47.6759H47.9641Z" fill="white"/>
<path d="M66.4107 57.5399C63.8187 57.5399 61.5147 56.9999 59.4987 55.9199C57.4827 54.8399 55.9107 53.3159 54.7827 51.3479C53.6547 49.3559 53.0907 47.0519 53.0907 44.4359C53.0907 41.8199 53.6547 39.5159 54.7827 37.5239C55.9107 35.5319 57.4827 33.9959 59.4987 32.9159C61.5147 31.8359 63.8187 31.2959 66.4107 31.2959C69.8907 31.2959 72.7827 32.1599 75.0867 33.8879V37.4159C72.9987 35.5919 70.2147 34.6799 66.7347 34.6799C64.8387 34.6799 63.1347 35.0759 61.6227 35.8679C60.1107 36.6599 58.9227 37.7999 58.0587 39.2879C57.2187 40.7519 56.7987 42.4679 56.7987 44.4359C56.7987 46.4039 57.2187 48.1319 58.0587 49.6199C58.8987 51.1079 60.0627 52.2479 61.5507 53.0399C63.0387 53.8319 64.7187 54.2279 66.5907 54.2279C68.7747 54.2279 70.5627 53.7839 71.9547 52.8959V46.3079H67.1667V43.3199H75.6267V54.8399C74.4987 55.7759 73.1667 56.4599 71.6307 56.8919C70.1187 57.3239 68.3787 57.5399 66.4107 57.5399Z" fill="white"/>
<path d="M80.3401 31.8359H90.4561C93.1441 31.8359 95.2081 32.4839 96.6481 33.7799C98.0881 35.0759 98.8081 36.9719 98.8081 39.4679C98.8081 41.3159 98.3161 42.8879 97.3321 44.1839C96.3481 45.4559 94.9561 46.3199 93.1561 46.7759L98.7001 56.9999H94.8841L89.5201 47.0639H84.0121V56.9999H80.3401V31.8359ZM89.8441 43.9679C91.4521 43.9679 92.7241 43.5959 93.6601 42.8519C94.6201 42.0839 95.1001 40.9559 95.1001 39.4679C95.1001 37.8359 94.6321 36.6719 93.6961 35.9759C92.7841 35.2799 91.5001 34.9319 89.8441 34.9319H84.0121V43.9679H89.8441Z" fill="white"/>
<path d="M110.477 31.8359H114.005L124.049 56.9999H120.305L117.785 50.7359H106.661L104.213 56.9999H100.433L110.477 31.8359ZM116.777 47.6759L112.241 35.9039L107.705 47.6759H116.777Z" fill="white"/>
<path d="M53.6969 14.1663C54.7002 15.6678 55.5536 17.2538 56.2502 18.9015C57.2912 21.3636 56.709 23.6804 55.1438 25.4558C53.5439 27.2706 50.9103 28.5 48 28.5H42C34.5442 28.5 28.5 34.5442 28.5 42V48C28.5 50.9103 27.2706 53.5439 25.4558 55.1438C23.6804 56.709 21.3636 57.2912 18.9015 56.2502C17.2538 55.5536 15.6678 54.7002 14.1663 53.6969C9.47946 50.5653 5.82654 46.1142 3.66945 40.9065C1.51235 35.6988 0.947954 29.9684 2.04763 24.4399C3.14731 18.9115 5.86167 13.8333 9.84747 9.84747C13.8333 5.86167 18.9115 3.14731 24.4399 2.04763C29.9684 0.947954 35.6988 1.51235 40.9065 3.66945C46.1142 5.82654 50.5653 9.47946 53.6969 14.1663Z" stroke="#8BC34A" stroke-width="3"/>
<path d="M50.1526 9.84746C52.775 12.4698 54.8335 15.5505 56.2502 18.9013C57.2912 21.3635 56.709 23.6803 55.1439 25.4558C53.544 27.2706 50.9103 28.5 48.0001 28.5H12.0001C9.08985 28.5 6.45621 27.2706 4.85632 25.4558C3.29116 23.6803 2.70896 21.3635 3.74996 18.9013C5.1667 15.5505 7.2252 12.4698 9.84755 9.84745C15.1923 4.50267 22.4414 1.5 30.0001 1.5C37.5588 1.5 44.8078 4.50267 50.1526 9.84746Z" stroke="#8BC34A" stroke-width="3"/>
<path d="M9.84768 9.84746C12.4942 7.20099 15.636 5.1017 19.0938 3.66944C21.5113 2.66805 23.7821 3.24617 25.5209 4.78267C27.298 6.35304 28.5002 8.93107 28.5002 11.7809V18C28.5002 23.799 23.7992 28.5 18.0002 28.5H11.7811C8.93129 28.5 6.35326 27.2978 4.78289 25.5207C3.24639 23.7819 2.66827 21.5111 3.66966 19.0935C5.10192 15.6357 7.20121 12.4939 9.84768 9.84746Z" stroke="#8BC34A" stroke-width="3"/>
</g>
<defs>
<clipPath id="clip0_151_183">
<rect width="125" height="59" fill="white"/>
</clipPath>
</defs>
</svg>
